<svg xmlns="http://www.w3.org/2000/svg" viewBox="0 0 1920 1080" width="1920" height="1080">
  <defs>
    <linearGradient id="bBg" x1="0" y1="0" x2="1" y2="1">
      <stop offset="0" stop-color="#0a0a0e"/>
      <stop offset="1" stop-color="#14141b"/>
    </linearGradient>
    <radialGradient id="bGlow" cx="35%" cy="30%" r="60%">
      <stop offset="0" stop-color="#2a2a37"/>
      <stop offset="1" stop-color="transparent"/>
    </radialGradient>
    <linearGradient id="bGold" x1="0" y1="0" x2="1" y2="0">
      <stop offset="0" stop-color="#F8E6B8"/>
      <stop offset="0.5" stop-color="#E3C06A"/>
      <stop offset="1" stop-color="#C49736"/>
    </linearGradient>
    <filter id="soft" x="-20%" y="-20%" width="140%" height="140%">
      <feGaussianBlur stdDeviation="6"/>
    </filter>
  </defs>

  <!-- base -->
  <rect width="1920" height="1080" fill="url(#bBg)"/>
  <rect width="1920" height="1080" fill="url(#bGlow)" opacity=".35"/>

  <!-- soft pulses -->
  <circle cx="420" cy="320" r="210" fill="#1f1f29" opacity=".55" filter="url(#soft)"/>
  <circle cx="520" cy="380" r="120" fill="#2a2a37" opacity=".45" filter="url(#soft)"/>

  <!-- coin -->
  <g transform="translate(520,380) scale(1.2)">
    <circle r="110" fill="url(#bGold)" opacity=".9"/>
    <circle r="90" fill="#0e0e14" opacity=".6"/>
    <path d="M-60 0 A60 60 0 1 0 60 0 A60 60 0 1 0 -60 0Z" fill="none" stroke="url(#bGold)" stroke-width="6" opacity=".9"/>
    <path d="M-18 -25 L 18 -25 L 0 25 Z" fill="url(#bGold)" opacity=".95"/>
  </g>

  <!-- hands/heart silhouette -->
  <g transform="translate(900,520) scale(1.0)" opacity=".22" stroke="url(#bGold)" stroke-width="2" fill="none">
    <path d="M-180 0 C -90 60, -60 60, 0 0 C 60 60, 90 60, 180 0" />
    <path d="M-90 -10 C -130 -70, -40 -110, 0 -60 C 40 -110, 130 -70, 90 -10" />
  </g>

  <!-- bottom gold band -->
  <path d="M0 960 C 380 920, 1540 1040, 1920 980 L1920 1080 H0Z" fill="url(#bGold)" opacity=".12"/>
  <rect x="0" y="1040" width="1920" height="2" fill="url(#bGold)" opacity=".85"/>
</svg>
