<svg xmlns="http://www.w3.org/2000/svg" viewBox="0 0 1920 1080" width="1920" height="1080">
  <defs>
    <linearGradient id="gBg" x1="0" y1="0" x2="1" y2="1">
      <stop offset="0" stop-color="#0b0b0f"/>
      <stop offset="1" stop-color="#121218"/>
    </linearGradient>
    <radialGradient id="gGlow" cx="50%" cy="35%" r="60%">
      <stop offset="0" stop-color="#2b2b38"/>
      <stop offset="1" stop-color="transparent"/>
    </radialGradient>
    <linearGradient id="gGold" x1="0" y1="0" x2="1" y2="0">
      <stop offset="0" stop-color="#F5DFA5"/>
      <stop offset="0.5" stop-color="#E5C46A"/>
      <stop offset="1" stop-color="#C99C3A"/>
    </linearGradient>
    <pattern id="grid" width="40" height="40" patternUnits="userSpaceOnUse">
      <path d="M40 0H0V40" fill="none" stroke="#20202a" stroke-width="1"/>
    </pattern>
  </defs>

  <!-- base -->
  <rect width="1920" height="1080" fill="url(#gBg)"/>
  <rect width="1920" height="1080" fill="url(#gGlow)" opacity=".35"/>

  <!-- subtle grid -->
  <rect width="1920" height="1080" fill="url(#grid)" opacity=".25"/>

  <!-- golden wave ribbons -->
  <path d="M-50 780 C 400 700, 900 900, 1970 760 L 1970 1080 L -50 1080 Z" fill="url(#gGold)" opacity=".12"/>
  <path d="M-50 880 C 500 820, 1100 1000, 1970 860 L 1970 1080 L -50 1080 Z" fill="url(#gGold)" opacity=".07"/>

  <!-- globe longitudes/latitudes -->
  <g transform="translate(1450,380) scale(1.1)" opacity=".18" stroke="url(#gGold)" fill="none" stroke-width="1.2">
    <circle r="220"/>
    <ellipse rx="220" ry="90"/>
    <ellipse rx="220" ry="150"/>
    <path d="M0,-220 A220,220 0 0 1 0,220"/>
    <path d="M-80,-205 A220,220 0 0 1 -80,205"/>
    <path d="M80,-205 A220,220 0 0 1 80,205"/>
  </g>

  <!-- bottom divider -->
  <rect x="0" y="1040" width="1920" height="2" fill="url(#gGold)" opacity=".8"/>
</svg>
