<svg xmlns="http://www.w3.org/2000/svg" viewBox="0 0 1920 1080" width="1920" height="1080">
  <defs>
    <linearGradient id="pBg" x1="0" y1="0" x2="1" y2="1">
      <stop offset="0" stop-color="#0b0b10"/>
      <stop offset="1" stop-color="#151520"/>
    </linearGradient>
    <radialGradient id="pGlow" cx="60%" cy="30%" r="65%">
      <stop offset="0" stop-color="#2c2c3a"/>
      <stop offset="1" stop-color="transparent"/>
    </radialGradient>
    <linearGradient id="pGold" x1="0" y1="0" x2="1" y2="0">
      <stop offset="0" stop-color="#F6E2A9"/>
      <stop offset="0.5" stop-color="#E0BC66"/>
      <stop offset="1" stop-color="#C89836"/>
    </linearGradient>
    <pattern id="dots" width="6" height="6" patternUnits="userSpaceOnUse">
      <circle cx="1" cy="1" r="1" fill="#1e1e2a"/>
    </pattern>
  </defs>

  <!-- base -->
  <rect width="1920" height="1080" fill="url(#pBg)"/>
  <rect width="1920" height="1080" fill="url(#pGlow)" opacity=".35"/>
  <rect width="1920" height="1080" fill="url(#dots)" opacity=".45"/>

  <!-- paper & checklist -->
  <g transform="translate(340,260)">
    <rect x="0" y="0" rx="18" ry="18" width="560" height="560" fill="#101018" stroke="url(#pGold)" stroke-width="2" opacity=".9"/>
    <!-- lines -->
    <g stroke="#2a2a3c" stroke-width="2" opacity=".9">
      <line x1="60" y1="100" x2="480" y2="100"/>
      <line x1="60" y1="160" x2="480" y2="160"/>
      <line x1="60" y1="220" x2="480" y2="220"/>
      <line x1="60" y1="280" x2="480" y2="280"/>
      <line x1="60" y1="340" x2="480" y2="340"/>
      <line x1="60" y1="400" x2="480" y2="400"/>
    </g>
    <!-- checkboxes -->
    <g fill="none" stroke="url(#pGold)" stroke-width="3">
      <rect x="20" y="80" width="24" height="24" rx="4"/>
      <rect x="20" y="140" width="24" height="24" rx="4"/>
      <rect x="20" y="200" width="24" height="24" rx="4"/>
    </g>
    <!-- one checked -->
    <path d="M22 150 L32 162 L46 138" stroke="url(#pGold)" stroke-width="4" fill="none"/>
  </g>

  <!-- globe wireframe -->
  <g transform="translate(1520,300)" opacity=".18" stroke="url(#pGold)" fill="none" stroke-width="1.2">
    <circle r="220"/>
    <ellipse rx="220" ry="90"/>
    <ellipse rx="220" ry="150"/>
    <path d="M0,-220 A220,220 0 0 1 0,220"/>
    <path d="M-80,-205 A220,220 0 0 1 -80,205"/>
    <path d="M80,-205 A220,220 0 0 1 80,205"/>
  </g>

  <!-- bottom accent -->
  <path d="M0 980 C 520 940, 1320 1060, 1920 1000 L 1920 1080 H 0 Z" fill="url(#pGold)" opacity=".10"/>
  <rect x="0" y="1040" width="1920" height="2" fill="url(#pGold)" opacity=".85"/>
</svg>
